# AST/ASF file generated using VICON BodyLanguage
# -----------------------------------------------
:version 1.10
:name VICON
:units
  mass 1.0
  length 0.45
  angle deg
:documentation
   .ast/.asf automatically generated from VICON data using
   VICON BodyBuilder and BodyLanguage model FoxedUp or BRILLIANT.MOD
:root
   order TX TY TZ RX RY RZ
   axis XYZ
   position 0 0 0  
   orientation 0 0 0 
:bonedata
  begin
     id 1 
     name lhipjoint
     direction 0.558404 -0.748506 0.357664 
     length 2.4234 
     axis 0 0 0  XYZ
  end
  begin
     id 2 
     name lfemur
     direction 0.34202 -0.939693 0  
     length 7.14567  
     axis 0 0 20  XYZ
    dof rx ry rz
    limits (-160.0 20.0)
           (-70.0 70.0)
           (-60.0 70.0)
  end
  begin
     id 3 
     name ltibia
     direction 0.34202 -0.939693 0   
     length 8.13956   
     axis 0 0 20   XYZ
    dof rx
    limits (-10.0 170.0)
  end
  begin
     id 4 
     name lfoot
     direction 0.0791314 -0.217412 0.972867   
     length 2.00134   
     axis -90 7.62852e-016 20   XYZ
    dof rx rz
    limits (-45.0 90.0)
           (-70.0 20.0)
  end
  begin
     id 5 
     name ltoes
     direction 1.53547e-011 -4.21922e-011 1   
     length 1.00735   
     axis -90 7.62852e-016 20   XYZ
    dof rx
    limits (-90.0 20.0)
  end
  begin
     id 6 
     name rhipjoint
     direction -0.496392 -0.78327 0.374276   
     length 2.31584  
     axis 0 0 0  XYZ 
  end
  begin
     id 7 
     name rfemur
     direction -0.34202 -0.939693 0   
     length 7.47417   
     axis 0 0 -20   XYZ
    dof rx ry rz
    limits (-160.0 20.0)
           (-70.0 70.0)
           (-70.0 60.0)
  end
  begin
     id 8 
     name rtibia
     direction -0.34202 -0.939693 0   
     length 7.69071   
     axis 0 0 -20   XYZ
    dof rx
    limits (-10.0 170.0)
 end
 begin
     id 9 
     name rfoot
     direction -0.103069 -0.28318 0.953512   
     length 2.16135  
     axis -90 -7.62852e-016 -20   XYZ
    dof rx rz
    limits (-45.0 90.0)
           (-20.0 70.0)
  end
  begin
     id 10 
     name rtoes
     direction -1.53581e-011 -4.21904e-011 1   
     length 1.07867   
     axis -90 -7.62852e-016 -20   XYZ
    dof rx
    limits (-90.0 20.0)
  end
  begin
     id 11 
     name lowerback
     direction -0.0258961 0.994776 -0.0987407   
     length 2.19412   
     axis 0 0 0   XYZ
    dof rx ry rz
    limits (-20.0 45.0)
           (-30.0 30.0)
           (-30.0 30.0)
  end
  begin
     id 12 
     name upperback
     direction 0.0402454 0.999185 0.00320666   
     length 2.18445   
     axis 0 0 0   XYZ
    dof rx ry rz
    limits (-20.0 45.0)
           (-30.0 30.0)
           (-30.0 30.0)
  end
  begin
     id 13 
     name thorax
     direction 0.0519376 0.997415 0.0496558   
     length 2.21487   
     axis 0 0 0   XYZ
    dof rx ry rz
    limits (-20.0 45.0)
           (-30.0 30.0)
           (-30.0 30.0)
  end
  begin
     id 14 
     name lowerneck
     direction -0.0921276 0.983211 0.157506   
     length 1.61201   
     axis 0 0 0   XYZ
    dof rx ry rz
    limits (-20.0 45.0)
           (-30.0 30.0)
           (-30.0 30.0)
  end
  begin
     id 15 
     name upperneck
     direction 0.0820814 0.98162 -0.172292   
     length 1.65275   
     axis 0 0 0   XYZ
    dof rx ry rz
    limits (-20.0 45.0)
           (-30.0 30.0)
           (-30.0 30.0)
  end
  begin
     id 16
     name head
     direction 0.0336554 0.996413 -0.0776455  
     length 1.66415  
     axis 0 0 0   XYZ
    dof rx ry rz
    limits (-20.0 45.0)
           (-30.0 30.0)
           (-30.0 30.0)
  end
  begin
     id 17 
     name lclavicle
     direction 0.94696 0.284418 -0.149576  
     length 3.41447  
     axis 0 0 0   XYZ
    dof ry rz
    limits (-20.0 10.0)
           (0.0 20.0)
  end
  begin
     id 18 
     name lhumerus
     direction 1 -0.000130264 -9.81312e-005   
     length 5.19964   
     axis 180 -30 -90   XYZ
    dof rx ry rz
    limits (-60.0 90.0)
           (-90.0 90.0)
           (-90.0 90.0)
  end
  begin
     id 19
     name lradius
     direction 1 -4.48961e-011 1.43854e-026   
     length 3.32189   
     axis 180 -30 -90   XYZ
    dof rx
    limits (-10.0 170.0)
  end
  begin
     id 20
     name lwrist
     direction 1 -4.48958e-011 3.1502e-026   
     length 1.66095   
     axis -1.97692e-014 90 90   XYZ
    dof ry
    limits (-180.0 0.0)
 end
  begin
     id 21 
     name lhand
     direction 1 -4.48927e-011 6.3004e-026   
     length 0.645616   
     axis -4.02019e-014 90 90   XYZ
    dof rx rz
    limits (-90.0 90.0)
           (-45.0 45.0)
  end
  begin
     id 22 
     name lfingers
     direction 1 -4.4904e-011 1.26008e-025   
     length 0.520512   
     axis -8.04039e-014 90 90   XYZ
    dof rx
    limits (0.0 90.0)
  end
  begin
     id 23
     name lthumb
     direction 0.707107 -6.34947e-011 0.707107   
     length 0.747354   
     axis -90 45 2.85299e-015   XYZ
    dof rx rz
    limits (-45.0 45.0)
           (-45.0 45.0)
  end
  begin
     id 24 
     name rclavicle
     direction -0.909391 0.383475 -0.161107   
     length 3.25176  
     axis 0 0 0   XYZ 
    dof ry rz
    limits (-10.0 20.0)
           (-20.0 0.0)
  end
  begin
     id 25 
     name rhumerus
     direction -1 -4.48965e-011 -1.81384e-027  
     length 5.6595   
     axis 180 30 90   XYZ
    dof rx ry rz
    limits (-90.0 60.0)
           (-90.0 90.0)
           (-90.0 90.0)
  end
  begin
     id 26 
     name rradius
     direction -1 -4.48996e-011 -8.09397e-027   
     length 3.37604   
     axis 180 30 90   XYZ
    dof rx
    limits (-10.0 170.0)
  end
  begin
     id 27 
     name rwrist
     direction -1 -4.48927e-011 -1.56669e-026   
     length 1.68802   
     axis 1.21142e-014 -90 -90   XYZ
    dof ry
    limits (-180.0 0.0)
  end
  begin
     id 28
     name rhand
     direction -1 -4.48912e-011 -3.13339e-026   
     length 0.824702   
     axis 1.99937e-014 -90 -90   XYZ
    dof rx rz
    limits (-90.0 90.0)
           (-45.0 45.0)
  end
  begin
     id 29
     name rfingers
     direction -1 -4.49011e-011 -6.26677e-026   
     length 0.664896   
     axis 3.99874e-014 -90 -90   XYZ
    dof rx
    limits (0.0 90.0)
  end
  begin
     id 30
     name rthumb
     direction -0.707107 -6.34931e-011 0.707107   
     length 0.954662   
     axis -90 -45 -2.85299e-015   XYZ
    dof rx rz
    limits (-45.0 45.0)
           (-45.0 45.0)
  end
:hierarchy
  begin
    root lhipjoint rhipjoint lowerback
    lhipjoint lfemur
    lfemur ltibia
    ltibia lfoot
    lfoot ltoes
    rhipjoint rfemur
    rfemur rtibia
    rtibia rfoot
    rfoot rtoes
    lowerback upperback
    upperback thorax
    thorax lowerneck lclavicle rclavicle
    lowerneck upperneck
    upperneck head
    lclavicle lhumerus
    lhumerus lradius
    lradius lwrist
    lwrist lhand lthumb
    lhand lfingers
    rclavicle rhumerus
    rhumerus rradius
    rradius rwrist
    rwrist rhand rthumb
    rhand rfingers
  end

#!OML:ASF F:\VICON\USERDATA\INSTALL\rory3\rory3.ASF
:FULLY-SPECIFIED
:DEGREES
265
root 4.96769 16.5904 -11.5472 23.7035 -24.9665 -18.9477
lowerback 13.5729 1.41934 4.64381
upperback 0.658362 3.23407 10.2771
thorax -7.33096 1.56143 7.88193
lowerneck -8.38746 -7.77947 -14.2729
upperneck 20.5945 -12.0699 15.7926
head 9.72314 -5.39666 6.5063
rclavicle 1.86858e-014 2.3059e-014
rhumerus -14.1385 4.75763 -63.6177
rradius 84.4893
rwrist -14.3216
rhand -20.7533 24.5225
rfingers 7.12502
rthumb 5.61259 -5.38313
lclavicle 1.86858e-014 2.3059e-014
lhumerus -36.6088 27.9273 30.3628
lradius 29.9572
lwrist -1.38276
lhand -9.46967 37.8931
lfingers 7.12502
lthumb 16.4943 67.212
rfemur 0.617835 -5.2163 24.5621
rtibia 39.0803
rfoot 4.59763 4.9611
rtoes 1.92417
lfemur -68.0353 11.4348 -14.9235
ltibia 79.8911
lfoot -14.4111 -5.41518
ltoes -5.29643
266
root 4.85735 16.6337 -11.1159 23.2537 -24.102 -19.3033
lowerback 13.2315 0.60337 4.44685
upperback 0.44956 2.15788 11.3219
thorax -7.31025 1.06073 9.43293
lowerneck -8.03813 -7.33746 -15.9943
upperneck 21.8368 -11.21 15.1496
head 10.0083 -5.20191 6.74204
rclavicle -1.90833e-014 -4.92986e-014
rhumerus -13.1705 8.05733 -62.3687
rradius 84.4612
rwrist -14.1014
rhand -20.4687 24.4636
rfingers 7.12502
rthumb 5.88734 -5.43457
lclavicle -1.90833e-014 -4.92986e-014
lhumerus -41.2843 28.0354 27.8163
lradius 30.7317
lwrist -0.3262
lhand -9.87698 38.5672
lfingers 7.12502
lthumb 16.1021 67.9182
rfemur 3.1849 -5.27858 24.326
rtibia 36.563
rfoot 10.0739 5.27012
rtoes 9.28237
lfemur -68.3079 10.7279 -14.4697
ltibia 76.1214
lfoot -14.5865 -5.32598
ltoes -6.25521
267
root 4.744 16.666 -10.6823 22.7385 -23.1855 -19.4002
lowerback 12.8773 -0.126503 4.02857
upperback 0.226053 1.14852 12.1988
thorax -7.25517 0.596469 10.9266
lowerneck -6.74032 -6.79664 -18.0316
upperneck 21.9779 -10.4298 15.5331
head 9.80636 -5.03826 7.39505
rclavicle -5.64548e-014 6.36111e-015
rhumerus -12.2734 10.7306 -61.1286
rradius 84.3239
rwrist -13.9285
rhand -19.8978 24.7363
rfingers 7.12502
rthumb 6.43853 -5.14579
lclavicle -5.64548e-014 6.36111e-015
lhumerus -45.3368 28.2516 25.2262
lradius 31.1265
lwrist 0.376006
lhand -10.0441 38.8088
lfingers 7.12502
lthumb 15.9412 68.1728
rfemur 5.89072 -5.201 23.9931
rtibia 34.2192
rfoot 13.0843 5.68736
rtoes 13.9674
lfemur -68.4463 9.92456 -14.2184
ltibia 72.1254
lfoot -14.7534 -5.29852
ltoes -7.82599
268
root 4.6313 16.6914 -10.2228 22.0027 -22.847 -19.3931
lowerback 12.3296 0.842449 5.05948
upperback 0.440457 2.4669 11.2897
thorax -6.82109 1.19071 8.95325
lowerneck -7.20968 -8.25444 -15.5132
upperneck 22.2071 -12.7756 15.1256
head 10.2361 -5.92078 6.45345
rclavicle 8.15017e-014 3.73715e-014
rhumerus -13.3996 6.89744 -60.8203
rradius 84.156
rwrist -13.4472
rhand -19.4474 25.0834
rfingers 7.12502
rthumb 6.87324 -4.78502
lclavicle 8.15017e-014 3.73715e-014
lhumerus -41.4492 27.6761 25.6412
lradius 30.5099
lwrist 0.646538
lhand -9.95331 37.9784
lfingers 7.12502
lthumb 16.0286 67.3354
rfemur 8.82882 -4.50447 23.3699
rtibia 32.2358
rfoot 13.8095 5.32165
rtoes 14.3737
lfemur -68.014 9.47239 -14.21
ltibia 67.9729
lfoot -14.819 -4.95453
ltoes -10.3258
269
root 4.52066 16.7091 -9.7654 21.208 -22.6383 -19.5319
lowerback 11.9608 1.22754 5.52465
upperback 0.598802 2.96929 11.0425
thorax -6.45991 1.41789 8.29153
lowerneck -7.57934 -8.94847 -14.605
upperneck 22.8694 -13.8533 14.6695
head 10.6405 -6.35315 5.96464
rclavicle 4.21423e-014 2.70347e-014
rhumerus -13.9865 5.67151 -60.1688
rradius 84.1765
rwrist -13.3819
rhand -19.2355 25.244
rfingers 7.12502
rthumb 7.07786 -4.61768
lclavicle 4.21423e-014 2.70347e-014
lhumerus -40.604 26.7936 25.1927
lradius 30.7081
lwrist 1.76889
lhand -9.91459 38.1431
lfingers 7.12502
lthumb 16.0659 67.4971
rfemur 11.7709 -3.25347 23.0762
rtibia 30.7163
rfoot 12.6355 3.46725
rtoes 11.3658
lfemur -67.2618 9.07885 -13.9484
ltibia 63.7056
lfoot -14.2508 -4.65657
ltoes -9.49908
270
root 4.41127 16.7135 -9.32559 20.5337 -22.3592 -19.9665
lowerback 11.7538 1.40971 6.01931
upperback 0.77745 3.22871 11.0738
thorax -6.15155 1.52954 7.98786
lowerneck -7.66623 -9.37091 -14.533
upperneck 23.2342 -14.5418 14.743
head 10.9173 -6.64476 5.87538
rclavicle -3.49861e-014 -3.10104e-014
rhumerus -14.0702 4.97723 -59.5692
rradius 83.7289
rwrist -13.4551
rhand -19.2205 25.6979
rfingers 7.12502
rthumb 7.09227 -4.16322
lclavicle -3.49861e-014 -3.10104e-014
lhumerus -40.6052 25.7678 24.6293
lradius 31.3868
lwrist 3.34812
lhand -10.0136 38.9752
lfingers 7.12502
lthumb 15.9706 68.3369
rfemur 14.4839 -1.81882 23.2839
rtibia 29.7217
rfoot 11.0576 0.44287
rtoes 8.6701
lfemur -66.4778 8.71355 -13.2661
ltibia 59.4022
lfoot -13.0896 -4.56012
ltoes -7.04868
